<?xml version="1.0" standalone="no"?><!DOCTYPE svg PUBLIC "-//W3C//DTD SVG 1.1//EN" "http://www.w3.org/Graphics/SVG/1.1/DTD/svg11.dtd"><svg t="1613455897101" class="icon" viewBox="0 0 1024 1024" version="1.1" xmlns="http://www.w3.org/2000/svg" p-id="2012" xmlns:xlink="http://www.w3.org/1999/xlink" width="200" height="200"><defs><style type="text/css"></style></defs><path d="M473.200772 397.968789m-27.605449-27.605448l-91.867313-91.867313q-27.605449-27.605449 0-55.210898l0 0q27.605449-27.605449 55.210898 0l91.867313 91.867313q27.605449 27.605449 0 55.210898l0 0q-27.605449 27.605449-55.210898 0Z" p-id="2013"></path><path d="M620.413944 251.090343m-27.605449 27.605449l-91.867313 91.867313q-27.605449 27.605449-55.210898 0l0 0q-27.605449-27.605449 0-55.210897l91.867313-91.867313q27.605449-27.605449 55.210898 0l0 0q27.605449 27.605449 0 55.210897Z" p-id="2014"></path><path d="M665.35488 451.2m-39.04 0l-305.92 0q-39.04 0-39.04-39.04l0 0q0-39.04 39.04-39.04l305.92 0q39.04 0 39.04 39.04l0 0q0 39.04-39.04 39.04Z" p-id="2015"></path><path d="M665.35488 607.36m-39.04 0l-305.92 0q-39.04 0-39.04-39.04l0 0q0-39.04 39.04-39.04l305.92 0q39.04 0 39.04 39.04l0 0q0 39.04-39.04 39.04Z" p-id="2016"></path><path d="M512.39488 407.68m0 39.04l0 241.92q0 39.04-39.04 39.04l0 0q-39.04 0-39.04-39.04l0-241.92q0-39.04 39.04-39.04l0 0q39.04 0 39.04 39.04Z" p-id="2017"></path><path d="M473.35488 928a464 464 0 1 1 464-464 48 48 0 0 1-96 0A368 368 0 1 0 473.35488 832a48 48 0 0 1 0 96z" p-id="2018"></path><path d="M870.15488 928.64m-48 0l-352 0q-48 0-48-48l0 0q0-48 48-48l352 0q48 0 48 48l0 0q0 48-48 48Z" p-id="2019"></path><path d="M998.15488 906.88l-174.08 112a32 32 0 0 1-46.72-26.88V768a32 32 0 0 1 49.28-26.88l174.08 111.36a32 32 0 0 1-2.56 54.4z" p-id="2020"></path></svg>